<svg width="160" height="25" viewBox="0 0 160 25" fill="none" xmlns="http://www.w3.org/2000/svg">
<path d="M7.728 18.168C5.76 18.168 4.144 17.704 2.88 16.776C1.616 15.832 0.936 14.488 0.84 12.744H5.856C5.904 13.336 6.08 13.768 6.384 14.04C6.688 14.312 7.08 14.448 7.56 14.448C7.992 14.448 8.344 14.344 8.616 14.136C8.904 13.912 9.048 13.608 9.048 13.224C9.048 12.728 8.816 12.344 8.352 12.072C7.888 11.8 7.136 11.496 6.096 11.16C4.992 10.792 4.096 10.44 3.408 10.104C2.736 9.752 2.144 9.248 1.632 8.592C1.136 7.92 0.888 7.048 0.888 5.976C0.888 4.888 1.16 3.96 1.704 3.192C2.248 2.408 3 1.816 3.96 1.416C4.92 1.016 6.008 0.816 7.224 0.816C9.192 0.816 10.76 1.28 11.928 2.208C13.112 3.12 13.744 4.408 13.824 6.072H8.712C8.696 5.56 8.536 5.176 8.232 4.92C7.944 4.664 7.568 4.536 7.104 4.536C6.752 4.536 6.464 4.64 6.24 4.848C6.016 5.056 5.904 5.352 5.904 5.736C5.904 6.056 6.024 6.336 6.264 6.576C6.52 6.8 6.832 7 7.2 7.176C7.568 7.336 8.112 7.544 8.832 7.8C9.904 8.168 10.784 8.536 11.472 8.904C12.176 9.256 12.776 9.76 13.272 10.416C13.784 11.056 14.04 11.872 14.04 12.864C14.04 13.872 13.784 14.776 13.272 15.576C12.776 16.376 12.048 17.008 11.088 17.472C10.144 17.936 9.024 18.168 7.728 18.168ZM15.4588 11.256C15.4588 9.864 15.7068 8.648 16.2028 7.608C16.7148 6.568 17.4028 5.768 18.2668 5.208C19.1468 4.648 20.1228 4.368 21.1948 4.368C22.1228 4.368 22.9228 4.552 23.5948 4.92C24.2668 5.288 24.7868 5.784 25.1548 6.408V4.536H29.8588V18H25.1548V16.128C24.7868 16.752 24.2588 17.248 23.5708 17.616C22.8988 17.984 22.1068 18.168 21.1948 18.168C20.1228 18.168 19.1468 17.888 18.2668 17.328C17.4028 16.768 16.7148 15.968 16.2028 14.928C15.7068 13.872 15.4588 12.648 15.4588 11.256ZM25.1548 11.256C25.1548 10.392 24.9148 9.712 24.4348 9.216C23.9708 8.72 23.3948 8.472 22.7068 8.472C22.0028 8.472 21.4188 8.72 20.9548 9.216C20.4908 9.696 20.2588 10.376 20.2588 11.256C20.2588 12.12 20.4908 12.808 20.9548 13.32C21.4188 13.816 22.0028 14.064 22.7068 14.064C23.3948 14.064 23.9708 13.816 24.4348 13.32C24.9148 12.824 25.1548 12.136 25.1548 11.256ZM40.9633 18L37.2433 12.48V18H32.5393V0.24H37.2433V9.816L40.9633 4.536H46.6033L41.2993 11.304L46.6993 18H40.9633ZM47.3104 11.256C47.3104 9.864 47.5584 8.648 48.0544 7.608C48.5664 6.568 49.2544 5.768 50.1184 5.208C50.9984 4.648 51.9744 4.368 53.0464 4.368C53.9744 4.368 54.7744 4.552 55.4464 4.92C56.1184 5.288 56.6384 5.784 57.0064 6.408V4.536H61.7104V18H57.0064V16.128C56.6384 16.752 56.1104 17.248 55.4224 17.616C54.7504 17.984 53.9584 18.168 53.0464 18.168C51.9744 18.168 50.9984 17.888 50.1184 17.328C49.2544 16.768 48.5664 15.968 48.0544 14.928C47.5584 13.872 47.3104 12.648 47.3104 11.256ZM57.0064 11.256C57.0064 10.392 56.7664 9.712 56.2864 9.216C55.8224 8.72 55.2464 8.472 54.5584 8.472C53.8544 8.472 53.2704 8.72 52.8064 9.216C52.3424 9.696 52.1104 10.376 52.1104 11.256C52.1104 12.12 52.3424 12.808 52.8064 13.32C53.2704 13.816 53.8544 14.064 54.5584 14.064C55.2464 14.064 55.8224 13.816 56.2864 13.32C56.7664 12.824 57.0064 12.136 57.0064 11.256ZM75.0949 15.24H69.0949L68.1829 18H63.2389L69.4069 1.08H74.8309L80.9749 18H76.0069L75.0949 15.24ZM73.9189 11.64L72.0949 6.168L70.2949 11.64H73.9189ZM87.4761 4.368C88.3881 4.368 89.1801 4.552 89.8521 4.92C90.5401 5.288 91.0681 5.784 91.4361 6.408V4.536H96.1401V17.856C96.1401 19.12 95.9001 20.256 95.4201 21.264C94.9401 22.288 94.1881 23.104 93.1641 23.712C92.1561 24.32 90.8761 24.624 89.3241 24.624C87.2441 24.624 85.5801 24.136 84.3321 23.16C83.0841 22.184 82.3721 20.856 82.1961 19.176H86.8281C86.9241 19.608 87.1641 19.944 87.5481 20.184C87.9321 20.424 88.4281 20.544 89.0361 20.544C90.6361 20.544 91.4361 19.648 91.4361 17.856V16.128C91.0681 16.752 90.5401 17.248 89.8521 17.616C89.1801 17.984 88.3881 18.168 87.4761 18.168C86.4041 18.168 85.4281 17.888 84.5481 17.328C83.6841 16.768 82.9961 15.968 82.4841 14.928C81.9881 13.872 81.7401 12.648 81.7401 11.256C81.7401 9.864 81.9881 8.648 82.4841 7.608C82.9961 6.568 83.6841 5.768 84.5481 5.208C85.4281 4.648 86.4041 4.368 87.4761 4.368ZM91.4361 11.256C91.4361 10.392 91.1961 9.712 90.7161 9.216C90.2521 8.72 89.6761 8.472 88.9881 8.472C88.2841 8.472 87.7001 8.72 87.2361 9.216C86.7721 9.696 86.5401 10.376 86.5401 11.256C86.5401 12.12 86.7721 12.808 87.2361 13.32C87.7001 13.816 88.2841 14.064 88.9881 14.064C89.6761 14.064 90.2521 13.816 90.7161 13.32C91.1961 12.824 91.4361 12.136 91.4361 11.256ZM111.685 11.112C111.685 11.48 111.661 11.848 111.613 12.216H102.709C102.757 12.952 102.957 13.504 103.309 13.872C103.677 14.224 104.141 14.4 104.701 14.4C105.485 14.4 106.045 14.048 106.381 13.344H111.397C111.189 14.272 110.781 15.104 110.173 15.84C109.581 16.56 108.829 17.128 107.917 17.544C107.005 17.96 105.997 18.168 104.893 18.168C103.565 18.168 102.381 17.888 101.341 17.328C100.317 16.768 99.5086 15.968 98.9166 14.928C98.3406 13.888 98.0526 12.664 98.0526 11.256C98.0526 9.848 98.3406 8.632 98.9166 7.608C99.4926 6.568 100.293 5.768 101.317 5.208C102.357 4.648 103.549 4.368 104.893 4.368C106.221 4.368 107.397 4.64 108.421 5.184C109.445 5.728 110.245 6.512 110.821 7.536C111.397 8.544 111.685 9.736 111.685 11.112ZM106.885 9.936C106.885 9.36 106.693 8.912 106.309 8.592C105.925 8.256 105.445 8.088 104.869 8.088C104.293 8.088 103.821 8.248 103.453 8.568C103.085 8.872 102.845 9.328 102.733 9.936H106.885ZM122.418 4.416C123.97 4.416 125.202 4.936 126.114 5.976C127.026 7 127.482 8.392 127.482 10.152V18H122.778V10.776C122.778 10.008 122.578 9.408 122.178 8.976C121.778 8.528 121.242 8.304 120.57 8.304C119.866 8.304 119.314 8.528 118.914 8.976C118.514 9.408 118.314 10.008 118.314 10.776V18H113.61V4.536H118.314V6.456C118.73 5.848 119.29 5.36 119.994 4.992C120.698 4.608 121.506 4.416 122.418 4.416ZM129.295 11.256C129.295 9.864 129.583 8.648 130.159 7.608C130.735 6.568 131.535 5.768 132.559 5.208C133.599 4.648 134.783 4.368 136.111 4.368C137.823 4.368 139.263 4.84 140.431 5.784C141.599 6.712 142.351 8.016 142.687 9.696H137.695C137.407 8.816 136.847 8.376 136.015 8.376C135.423 8.376 134.951 8.624 134.599 9.12C134.263 9.6 134.095 10.312 134.095 11.256C134.095 12.2 134.263 12.92 134.599 13.416C134.951 13.912 135.423 14.16 136.015 14.16C136.863 14.16 137.423 13.72 137.695 12.84H142.687C142.351 14.504 141.599 15.808 140.431 16.752C139.263 17.696 137.823 18.168 136.111 18.168C134.783 18.168 133.599 17.888 132.559 17.328C131.535 16.768 130.735 15.968 130.159 14.928C129.583 13.888 129.295 12.664 129.295 11.256ZM159.137 4.536L150.593 24.408H145.481L148.697 17.424L143.177 4.536H148.409L151.241 12.168L153.977 4.536H159.137Z" fill="white"/>
</svg>
